<svg version="1.1" viewBox="0.0 0.0 600.0 371.0" fill="none" stroke="none" stroke-linecap="square" stroke-miterlimit="10" width="600" height="371" xmlns:xlink="http://www.w3.org/1999/xlink" xmlns="http://www.w3.org/2000/svg"><path fill="#ffffff" d="M0 0L600.0 0L600.0 371.0L0 371.0L0 0Z" fill-rule="nonzero"/><path stroke="#333333" stroke-width="1.0" stroke-linecap="butt" d="M84.5 61.5L84.5 300.5" fill-rule="nonzero"/><path stroke="#cccccc" stroke-width="1.0" stroke-linecap="butt" d="M224.5 61.5L224.5 300.5" fill-rule="nonzero"/><path stroke="#cccccc" stroke-width="1.0" stroke-linecap="butt" d="M364.5 61.5L364.5 300.5" fill-rule="nonzero"/><path stroke="#cccccc" stroke-width="1.0" stroke-linecap="butt" d="M504.5 61.5L504.5 300.5" fill-rule="nonzero"/><path stroke="#333333" stroke-width="1.0" stroke-linecap="butt" d="M77.5 300.5L581.5 300.5" fill-rule="nonzero"/><path stroke="#cccccc" stroke-width="1.0" stroke-linecap="butt" d="M77.5 240.5L581.5 240.5" fill-rule="nonzero"/><path stroke="#cccccc" stroke-width="1.0" stroke-linecap="butt" d="M77.5 181.5L581.5 181.5" fill-rule="nonzero"/><path stroke="#cccccc" stroke-width="1.0" stroke-linecap="butt" d="M77.5 121.5L581.5 121.5" fill-rule="nonzero"/><path stroke="#cccccc" stroke-width="1.0" stroke-linecap="butt" d="M77.5 61.5L581.5 61.5" fill-rule="nonzero"/><clipPath id="id_0"><path d="M77.55 61.916668L581.45 61.916668L581.45 300.45L77.55 300.45L77.55 61.916668Z" clip-rule="nonzero"/></clipPath><path fill="#4285f4" clip-path="url(#id_0)" d="M88.86077 300.45C88.86077 302.93527 86.846054 304.95 84.36077 304.95C81.875496 304.95 79.86077 302.93527 79.86077 300.45C79.86077 297.96472 81.875496 295.95 84.36077 295.95C86.846054 295.95 88.86077 297.96472 88.86077 300.45Z" fill-rule="nonzero"/><path fill="#4285f4" clip-path="url(#id_0)" d="M158.90056 257.45438C158.90056 259.93964 156.88583 261.95438 154.40056 261.95438C151.91527 261.95438 149.90056 259.93964 149.90056 257.45438C149.90056 254.96909 151.91527 252.95436 154.40056 252.95436C156.88583 252.95436 158.90056 254.96909 158.90056 257.45438Z" fill-rule="nonzero"/><path fill="#4285f4" clip-path="url(#id_0)" d="M158.90056 255.69519C158.90056 258.18045 156.88583 260.1952 154.40056 260.1952C151.91527 260.1952 149.90056 258.18045 149.90056 255.69519C149.90056 253.2099 151.91527 251.19519 154.40056 251.19519C156.88583 251.19519 158.90056 253.2099 158.90056 255.69519Z" fill-rule="nonzero"/><path fill="#4285f4" clip-path="url(#id_0)" d="M228.94034 216.48627C228.94034 218.97154 226.92561 220.98627 224.44034 220.98627C221.95505 220.98627 219.94034 218.97154 219.94034 216.48627C219.94034 214.00099 221.95505 211.98627 224.44034 211.98627C226.92561 211.98627 228.94034 214.00099 228.94034 216.48627Z" fill-rule="nonzero"/><path fill="#4285f4" clip-path="url(#id_0)" d="M228.94034 212.40138C228.94034 214.88666 226.92561 216.90138 224.44034 216.90138C221.95505 216.90138 219.94034 214.88666 219.94034 212.40138C219.94034 209.9161 221.95505 207.90138 224.44034 207.90138C226.92561 207.90138 228.94034 209.9161 228.94034 212.40138Z" fill-rule="nonzero"/><path fill="#4285f4" clip-path="url(#id_0)" d="M298.9801 174.05714C298.9801 176.54243 296.9654 178.55714 294.4801 178.55714C291.99484 178.55714 289.9801 176.54243 289.9801 174.05714C289.9801 171.57187 291.99484 169.55714 294.4801 169.55714C296.9654 169.55714 298.9801 171.57187 298.9801 174.05714Z" fill-rule="nonzero"/><path fill="#4285f4" clip-path="url(#id_0)" d="M298.9801 170.0319C298.9801 172.51718 296.9654 174.5319 294.4801 174.5319C291.99484 174.5319 289.9801 172.51718 289.9801 170.0319C289.9801 167.54662 291.99484 165.5319 294.4801 165.5319C296.9654 165.5319 298.9801 167.54662 298.9801 170.0319Z" fill-rule="nonzero"/><path fill="#4285f4" clip-path="url(#id_0)" d="M369.0199 128.1693C369.0199 130.65459 367.00516 132.6693 364.5199 132.6693C362.0346 132.6693 360.0199 130.65459 360.0199 128.1693C360.0199 125.68402 362.0346 123.6693 364.5199 123.6693C367.00516 123.6693 369.0199 125.68402 369.0199 128.1693Z" fill-rule="nonzero"/><path fill="#4285f4" clip-path="url(#id_0)" d="M369.0199 133.41704C369.0199 135.90231 367.00516 137.91704 364.5199 137.91704C362.0346 137.91704 360.0199 135.90231 360.0199 133.41704C360.0199 130.93175 362.0346 128.91704 364.5199 128.91704C367.00516 128.91704 369.0199 130.93175 369.0199 133.41704Z" fill-rule="nonzero"/><path fill="#4285f4" clip-path="url(#id_0)" d="M439.05966 68.7745C439.05966 71.25978 437.04495 73.2745 434.55966 73.2745C432.0744 73.2745 430.05966 71.25978 430.05966 68.7745C430.05966 66.289215 432.0744 64.2745 434.55966 64.2745C437.04495 64.2745 439.05966 66.289215 439.05966 68.7745Z" fill-rule="nonzero"/><path fill="#4285f4" clip-path="url(#id_0)" d="M439.05966 74.88692C439.05966 77.3722 437.04495 79.38692 434.55966 79.38692C432.0744 79.38692 430.05966 77.3722 430.05966 74.88692C430.05966 72.401634 432.0744 70.38692 434.55966 70.38692C437.04495 70.38692 439.05966 72.401634 439.05966 74.88692Z" fill-rule="nonzero"/><path fill="#4285f4" clip-path="url(#id_0)" d="M509.09946 100.380165C509.09946 102.86545 507.08472 104.880165 504.59946 104.880165C502.11417 104.880165 500.09946 102.86545 500.09946 100.380165C500.09946 97.89488 502.11417 95.880165 504.59946 95.880165C507.08472 95.880165 509.09946 97.89488 509.09946 100.380165Z" fill-rule="nonzero"/><path fill="#4285f4" clip-path="url(#id_0)" d="M509.09946 95.042984C509.09946 97.52827 507.08472 99.542984 504.59946 99.542984C502.11417 99.542984 500.09946 97.52827 500.09946 95.042984C500.09946 92.5577 502.11417 90.542984 504.59946 90.542984C507.08472 90.542984 509.09946 92.5577 509.09946 95.042984Z" fill-rule="nonzero"/><path fill="#4285f4" clip-path="url(#id_0)" d="M579.1392 140.21524C579.1392 142.70052 577.1245 144.71524 574.6392 144.71524C572.15393 144.71524 570.1392 142.70052 570.1392 140.21524C570.1392 137.72995 572.15393 135.71524 574.6392 135.71524C577.1245 135.71524 579.1392 137.72995 579.1392 140.21524Z" fill-rule="nonzero"/><path fill="#4285f4" clip-path="url(#id_0)" d="M579.1392 123.24955C579.1392 125.73483 577.1245 127.74955 574.6392 127.74955C572.15393 127.74955 570.1392 125.73483 570.1392 123.24955C570.1392 120.76427 572.15393 118.74955 574.6392 118.74955C577.1245 118.74955 579.1392 120.76427 579.1392 123.24955Z" fill-rule="nonzero"/><path fill="#000000" d="M282.42188 349.45L282.42188 340.85626L285.39062 340.85626Q286.39062 340.85626 286.92188 340.98126Q287.65625 341.15314 288.17188 341.59064Q288.85938 342.16876 289.1875 343.075Q289.53125 343.96564 289.53125 345.10626Q289.53125 346.09064 289.29688 346.84064Q289.07812 347.59064 288.71875 348.09064Q288.35938 348.59064 287.92188 348.8719Q287.5 349.15314 286.90625 349.3094Q286.3125 349.45 285.53125 349.45L282.42188 349.45ZM283.5625 348.4344L285.39062 348.4344Q286.25 348.4344 286.73438 348.27814Q287.21875 348.1219 287.5 347.825Q287.90625 347.4344 288.125 346.7469Q288.35938 346.0594 288.35938 345.09064Q288.35938 343.7469 287.90625 343.02814Q287.46875 342.29376 286.84375 342.04376Q286.375 341.8719 285.375 341.8719L283.5625 341.8719L283.5625 348.4344ZM291.29688 342.075L291.29688 340.85626L292.35938 340.85626L292.35938 342.075L291.29688 342.075ZM291.29688 349.45L291.29688 343.23126L292.35938 343.23126L292.35938 349.45L291.29688 349.45ZM293.875 347.59064L294.90625 347.4344Q295.0 348.0594 295.39062 348.3875Q295.79688 348.71564 296.53125 348.71564Q297.25 348.71564 297.59375 348.4344Q297.95312 348.1375 297.95312 347.73126Q297.95312 347.3719 297.64062 347.16876Q297.42188 347.02814 296.5625 346.8094Q295.40625 346.5125 294.95312 346.3094Q294.51562 346.09064 294.28125 345.71564Q294.04688 345.34064 294.04688 344.8719Q294.04688 344.46564 294.23438 344.10626Q294.42188 343.7469 294.75 343.5125Q295.0 343.34064 295.42188 343.21564Q295.84375 343.09064 296.34375 343.09064Q297.0625 343.09064 297.60938 343.3094Q298.17188 343.5125 298.4375 343.8719Q298.70312 344.23126 298.79688 344.825L297.76562 344.96564Q297.70312 344.4969 297.35938 344.23126Q297.03125 343.95 296.40625 343.95Q295.6875 343.95 295.375 344.2Q295.0625 344.4344 295.0625 344.7625Q295.0625 344.96564 295.1875 345.1219Q295.32812 345.29376 295.59375 345.40314Q295.75 345.46564 296.53125 345.66876Q297.65625 345.98126 298.09375 346.16876Q298.53125 346.35626 298.78125 346.71564Q299.03125 347.075 299.03125 347.6219Q299.03125 348.15314 298.71875 348.6219Q298.42188 349.075 297.84375 349.34064Q297.26562 349.59064 296.53125 349.59064Q295.3125 349.59064 294.67188 349.09064Q294.04688 348.575 293.875 347.59064ZM300.29688 351.84064L300.29688 343.23126L301.25 343.23126L301.25 344.02814Q301.59375 343.5594 302.01562 343.325Q302.45312 343.09064 303.0625 343.09064Q303.85938 343.09064 304.46875 343.4969Q305.07812 343.90314 305.375 344.65314Q305.6875 345.40314 305.6875 346.29376Q305.6875 347.2469 305.34375 348.0125Q305.01562 348.77814 304.35938 349.1844Q303.70312 349.59064 302.98438 349.59064Q302.45312 349.59064 302.03125 349.3719Q301.60938 349.1375 301.34375 348.8094L301.34375 351.84064L300.29688 351.84064ZM301.25 346.3719Q301.25 347.575 301.73438 348.15314Q302.21875 348.71564 302.90625 348.71564Q303.60938 348.71564 304.10938 348.1219Q304.60938 347.52814 304.60938 346.27814Q304.60938 345.09064 304.125 344.5125Q303.64062 343.91876 302.95312 343.91876Q302.28125 343.91876 301.76562 344.54376Q301.25 345.16876 301.25 346.3719ZM307.26562 349.45L307.26562 340.85626L308.32812 340.85626L308.32812 349.45L307.26562 349.45ZM314.35938 348.6844Q313.76562 349.1844 313.21875 349.3875Q312.6875 349.59064 312.0625 349.59064Q311.03125 349.59064 310.48438 349.09064Q309.9375 348.59064 309.9375 347.8094Q309.9375 347.35626 310.14062 346.98126Q310.34375 346.59064 310.6875 346.3719Q311.03125 346.1375 311.45312 346.02814Q311.75 345.9344 312.39062 345.85626Q313.65625 345.71564 314.26562 345.4969Q314.26562 345.27814 314.26562 345.23126Q314.26562 344.575 313.96875 344.3094Q313.5625 343.96564 312.76562 343.96564Q312.03125 343.96564 311.67188 344.23126Q311.3125 344.48126 311.14062 345.1375L310.10938 344.9969Q310.25 344.34064 310.57812 343.9344Q310.90625 343.52814 311.51562 343.3094Q312.125 343.09064 312.92188 343.09064Q313.71875 343.09064 314.21875 343.27814Q314.71875 343.46564 314.95312 343.7469Q315.1875 344.02814 315.28125 344.46564Q315.32812 344.73126 315.32812 345.4344L315.32812 346.84064Q315.32812 348.3094 315.39062 348.7Q315.46875 349.09064 315.67188 349.45L314.5625 349.45Q314.40625 349.1219 314.35938 348.6844ZM314.26562 346.325Q313.6875 346.5594 312.54688 346.73126Q311.89062 346.825 311.625 346.95Q311.35938 347.0594 311.20312 347.27814Q311.0625 347.4969 311.0625 347.77814Q311.0625 348.2 311.375 348.48126Q311.70312 348.7625 312.3125 348.7625Q312.92188 348.7625 313.39062 348.4969Q313.875 348.23126 314.09375 347.7625Q314.26562 347.40314 314.26562 346.71564L314.26562 346.325ZM321.35938 347.16876L322.39062 347.3094Q322.21875 348.3719 321.51562 348.98126Q320.8125 349.59064 319.79688 349.59064Q318.51562 349.59064 317.73438 348.7625Q316.96875 347.91876 316.96875 346.35626Q316.96875 345.35626 317.29688 344.60626Q317.64062 343.84064 318.3125 343.46564Q319.0 343.09064 319.8125 343.09064Q320.8125 343.09064 321.45312 343.60626Q322.10938 344.10626 322.29688 345.0594L321.26562 345.21564Q321.125 344.59064 320.75 344.27814Q320.375 343.95 319.84375 343.95Q319.04688 343.95 318.54688 344.52814Q318.04688 345.09064 318.04688 346.325Q318.04688 347.59064 318.53125 348.15314Q319.01562 348.71564 319.78125 348.71564Q320.40625 348.71564 320.8125 348.34064Q321.23438 347.96564 321.35938 347.16876ZM327.54688 347.45L328.64062 347.575Q328.39062 348.52814 327.6875 349.0594Q326.98438 349.59064 325.90625 349.59064Q324.54688 349.59064 323.73438 348.7469Q322.9375 347.90314 322.9375 346.3875Q322.9375 344.825 323.75 343.96564Q324.5625 343.09064 325.84375 343.09064Q327.09375 343.09064 327.875 343.9344Q328.67188 344.77814 328.67188 346.325Q328.67188 346.41876 328.67188 346.60626L324.03125 346.60626Q324.09375 347.6375 324.60938 348.1844Q325.125 348.71564 325.90625 348.71564Q326.48438 348.71564 326.89062 348.41876Q327.3125 348.10626 327.54688 347.45ZM324.09375 345.7469L327.5625 345.7469Q327.5 344.95 327.17188 344.5594Q326.65625 343.95 325.85938 343.95Q325.125 343.95 324.625 344.4344Q324.14062 344.91876 324.09375 345.7469ZM330.29688 349.45L330.29688 343.23126L331.23438 343.23126L331.23438 344.10626Q331.53125 343.6375 332.01562 343.3719Q332.5 343.09064 333.125 343.09064Q333.8125 343.09064 334.25 343.3719Q334.70312 343.65314 334.875 344.16876Q335.625 343.09064 336.79688 343.09064Q337.73438 343.09064 338.21875 343.60626Q338.71875 344.10626 338.71875 345.1844L338.71875 349.45L337.67188 349.45L337.67188 345.52814Q337.67188 344.90314 337.5625 344.6219Q337.46875 344.34064 337.20312 344.16876Q336.9375 343.9969 336.5625 343.9969Q335.90625 343.9969 335.46875 344.4344Q335.04688 344.8719 335.04688 345.84064L335.04688 349.45L333.98438 349.45L333.98438 345.40314Q333.98438 344.7 333.71875 344.35626Q333.46875 343.9969 332.89062 343.9969Q332.4375 343.9969 332.0625 344.23126Q331.6875 344.46564 331.51562 344.91876Q331.34375 345.3719 331.34375 346.21564L331.34375 349.45L330.29688 349.45ZM344.54688 347.45L345.64062 347.575Q345.39062 348.52814 344.6875 349.0594Q343.98438 349.59064 342.90625 349.59064Q341.54688 349.59064 340.73438 348.7469Q339.9375 347.90314 339.9375 346.3875Q339.9375 344.825 340.75 343.96564Q341.5625 343.09064 342.84375 343.09064Q344.09375 343.09064 344.875 343.9344Q345.67188 344.77814 345.67188 346.325Q345.67188 346.41876 345.67188 346.60626L341.03125 346.60626Q341.09375 347.6375 341.60938 348.1844Q342.125 348.71564 342.90625 348.71564Q343.48438 348.71564 343.89062 348.41876Q344.3125 348.10626 344.54688 347.45ZM341.09375 345.7469L344.5625 345.7469Q344.5 344.95 344.17188 344.5594Q343.65625 343.95 342.85938 343.95Q342.125 343.95 341.625 344.4344Q341.14062 344.91876 341.09375 345.7469ZM347.29688 349.45L347.29688 343.23126L348.23438 343.23126L348.23438 344.10626Q348.92188 343.09064 350.21875 343.09064Q350.78125 343.09064 351.25 343.29376Q351.73438 343.4969 351.96875 343.825Q352.20312 344.15314 352.29688 344.59064Q352.34375 344.8875 352.34375 345.6219L352.34375 349.45L351.29688 349.45L351.29688 345.66876Q351.29688 345.0125 351.17188 344.7Q351.04688 344.3875 350.73438 344.2Q350.42188 343.9969 350.0 343.9969Q349.32812 343.9969 348.82812 344.4344Q348.34375 344.85626 348.34375 346.04376L348.34375 349.45L347.29688 349.45ZM356.59375 348.5125L356.75 349.4344Q356.29688 349.52814 355.95312 349.52814Q355.375 349.52814 355.0625 349.35626Q354.75 349.16876 354.60938 348.8719Q354.48438 348.575 354.48438 347.6219L354.48438 344.04376L353.71875 344.04376L353.71875 343.23126L354.48438 343.23126L354.48438 341.6844L355.53125 341.0594L355.53125 343.23126L356.59375 343.23126L356.59375 344.04376L355.53125 344.04376L355.53125 347.6844Q355.53125 348.1375 355.57812 348.2625Q355.64062 348.3875 355.76562 348.46564Q355.89062 348.54376 356.125 348.54376Q356.3125 348.54376 356.59375 348.5125ZM362.3125 351.98126Q361.4375 350.8719 360.82812 349.40314Q360.23438 347.91876 360.23438 346.34064Q360.23438 344.95 360.67188 343.66876Q361.20312 342.1844 362.3125 340.71564L363.0625 340.71564Q362.35938 341.9344 362.125 342.45Q361.76562 343.2625 361.5625 344.1375Q361.3125 345.23126 361.3125 346.34064Q361.3125 349.16876 363.0625 351.98126L362.3125 351.98126ZM364.29688 349.45L364.29688 343.23126L365.23438 343.23126L365.23438 344.10626Q365.53125 343.6375 366.01562 343.3719Q366.5 343.09064 367.125 343.09064Q367.8125 343.09064 368.25 343.3719Q368.70312 343.65314 368.875 344.16876Q369.625 343.09064 370.79688 343.09064Q371.73438 343.09064 372.21875 343.60626Q372.71875 344.10626 372.71875 345.1844L372.71875 349.45L371.67188 349.45L371.67188 345.52814Q371.67188 344.90314 371.5625 344.6219Q371.46875 344.34064 371.20312 344.16876Q370.9375 343.9969 370.5625 343.9969Q369.90625 343.9969 369.46875 344.4344Q369.04688 344.8719 369.04688 345.84064L369.04688 349.45L367.98438 349.45L367.98438 345.40314Q367.98438 344.7 367.71875 344.35626Q367.46875 343.9969 366.89062 343.9969Q366.4375 343.9969 366.0625 344.23126Q365.6875 344.46564 365.51562 344.91876Q365.34375 345.3719 365.34375 346.21564L365.34375 349.45L364.29688 349.45ZM374.98438 351.98126L374.23438 351.98126Q375.98438 349.16876 375.98438 346.34064Q375.98438 345.2469 375.73438 344.15314Q375.53125 343.27814 375.17188 342.46564Q374.9375 341.95 374.23438 340.71564L374.98438 340.71564Q376.07812 342.1844 376.60938 343.66876Q377.0625 344.95 377.0625 346.34064Q377.0625 347.91876 376.45312 349.40314Q375.84375 350.8719 374.98438 351.98126Z" fill-rule="nonzero"/><path fill="#000000" d="M26.784388 232.13646L26.690638 231.07396Q27.346888 230.99583 27.753138 230.71458Q28.159388 230.43333 28.425013 229.85521Q28.675013 229.26146 28.675013 228.52708Q28.675013 227.88646 28.487513 227.38646Q28.284388 226.88646 27.956263 226.65208Q27.612513 226.40208 27.221888 226.40208Q26.815638 226.40208 26.518763 226.63646Q26.206263 226.87083 26.003138 227.40208Q25.862513 227.76146 25.581263 228.94896Q25.300013 230.12083 25.050013 230.58958Q24.721888 231.21458 24.253138 231.51146Q23.768763 231.80833 23.175013 231.80833Q22.534388 231.80833 21.971888 231.44896Q21.393763 231.07396 21.112513 230.37083Q20.815638 229.65208 20.815638 228.79271Q20.815638 227.83958 21.128138 227.10521Q21.425013 226.37083 22.034388 225.98021Q22.628138 225.58958 23.378138 225.55833L23.456263 226.65208Q22.643763 226.74583 22.237513 227.26146Q21.815638 227.76146 21.815638 228.74583Q21.815638 229.77708 22.190638 230.24583Q22.565638 230.71458 23.096888 230.71458Q23.565638 230.71458 23.862513 230.38646Q24.159388 230.05833 24.471888 228.68333Q24.784388 227.29271 25.018763 226.77708Q25.378138 226.02708 25.909388 225.66771Q26.425013 225.30833 27.128138 225.30833Q27.815638 225.30833 28.425013 225.69896Q29.018763 226.08958 29.362513 226.82396Q29.690638 227.55833 29.690638 228.48021Q29.690638 229.65208 29.362513 230.44896Q29.018763 231.23021 28.331263 231.68333Q27.643763 232.12083 26.784388 232.13646ZM31.940638 223.88646L23.331263 223.88646L23.331263 222.93333L24.128138 222.93333Q23.659388 222.58958 23.425013 222.16771Q23.190638 221.73021 23.190638 221.12083Q23.190638 220.32396 23.596888 219.71458Q24.003138 219.10521 24.753138 218.80833Q25.503138 218.49583 26.393763 218.49583Q27.346888 218.49583 28.112513 218.83958Q28.878138 219.16771 29.284388 219.82396Q29.690638 220.48021 29.690638 221.19896Q29.690638 221.73021 29.471888 222.15208Q29.237513 222.57396 28.909388 222.83958L31.940638 222.83958L31.940638 223.88646ZM26.471888 222.93333Q27.675013 222.93333 28.253138 222.44896Q28.815638 221.96458 28.815638 221.27708Q28.815638 220.57396 28.221888 220.07396Q27.628138 219.57396 26.378138 219.57396Q25.190638 219.57396 24.612513 220.05833Q24.018763 220.54271 24.018763 221.23021Q24.018763 221.90208 24.643763 222.41771Q25.268763 222.93333 26.471888 222.93333ZM29.550013 216.90208L23.331263 216.90208L23.331263 215.94896L24.268763 215.94896Q23.612513 215.58958 23.409388 215.29271Q23.190638 214.98021 23.190638 214.60521Q23.190638 214.07396 23.518763 213.52708L24.503138 213.88646Q24.268763 214.27708 24.268763 214.65208Q24.268763 215.01146 24.487513 215.29271Q24.690638 215.55833 25.065638 215.66771Q25.628138 215.85521 26.284388 215.85521L29.550013 215.85521L29.550013 216.90208ZM22.175013 212.88646L20.956263 212.88646L20.956263 211.82396L22.175013 211.82396L22.175013 212.88646ZM29.550013 212.88646L23.331263 212.88646L23.331263 211.82396L29.550013 211.82396L29.550013 212.88646ZM29.550013 209.88646L23.331263 209.88646L23.331263 208.94896L24.206263 208.94896Q23.190638 208.26146 23.190638 206.96458Q23.190638 206.40208 23.393763 205.93333Q23.596888 205.44896 23.925013 205.21458Q24.253138 204.98021 24.690638 204.88646Q24.987513 204.83958 25.721888 204.83958L29.550013 204.83958L29.550013 205.88646L25.768763 205.88646Q25.112513 205.88646 24.800013 206.01146Q24.487513 206.13646 24.300013 206.44896Q24.096888 206.76146 24.096888 207.18333Q24.096888 207.85521 24.534388 208.35521Q24.956263 208.83958 26.143763 208.83958L29.550013 208.83958L29.550013 209.88646ZM30.065638 203.08958L30.221888 202.05833Q30.690638 201.99583 30.909388 201.69896Q31.206263 201.30833 31.206263 200.63646Q31.206263 199.90208 30.909388 199.51146Q30.612513 199.10521 30.096888 198.96458Q29.768763 198.87083 28.737513 198.88646Q29.550013 199.57396 29.550013 200.60521Q29.550013 201.88646 28.628138 202.58958Q27.690638 203.29271 26.409388 203.29271Q25.518763 203.29271 24.768763 202.98021Q24.003138 202.65208 23.596888 202.04271Q23.190638 201.43333 23.190638 200.60521Q23.190638 199.49583 24.081263 198.77708L23.331263 198.77708L23.331263 197.80833L28.706263 197.80833Q30.159388 197.80833 30.768763 198.10521Q31.378138 198.40208 31.721888 199.04271Q32.08126 199.68333 32.08126 200.62083Q32.08126 201.73021 31.581263 202.41771Q31.081263 203.10521 30.065638 203.08958ZM26.331263 202.21458Q27.550013 202.21458 28.112513 201.73021Q28.675013 201.24583 28.675013 200.51146Q28.675013 199.77708 28.112513 199.29271Q27.550013 198.79271 26.362513 198.79271Q25.221888 198.79271 24.643763 199.30833Q24.065638 199.80833 24.065638 200.52708Q24.065638 201.23021 24.643763 201.73021Q25.206263 202.21458 26.331263 202.21458ZM29.550013 192.69896L20.956263 192.69896L20.956263 186.90208L21.971888 186.90208L21.971888 191.55833L24.628138 191.55833L24.628138 187.52708L25.643763 187.52708L25.643763 191.55833L29.550013 191.55833L29.550013 192.69896ZM26.440638 186.27708Q24.706263 186.27708 23.878138 185.32396Q23.190638 184.52708 23.190638 183.37083Q23.190638 182.08958 24.034388 181.27708Q24.862513 180.44896 26.346888 180.44896Q27.550013 180.44896 28.237513 180.80833Q28.925013 181.16771 29.315638 181.87083Q29.690638 182.55833 29.690638 183.37083Q29.690638 184.66771 28.862513 185.48021Q28.018763 186.27708 26.440638 186.27708ZM26.440638 185.19896Q27.628138 185.19896 28.221888 184.68333Q28.815638 184.15208 28.815638 183.37083Q28.815638 182.57396 28.221888 182.05833Q27.628138 181.54271 26.409388 181.54271Q25.253138 181.54271 24.659388 182.07396Q24.065638 182.58958 24.065638 183.37083Q24.065638 184.15208 24.659388 184.68333Q25.237513 185.19896 26.440638 185.19896ZM29.550013 178.90208L23.331263 178.90208L23.331263 177.94896L24.268763 177.94896Q23.612513 177.58958 23.409388 177.29271Q23.190638 176.98021 23.190638 176.60521Q23.190638 176.07396 23.518763 175.52708L24.503138 175.88646Q24.268763 176.27708 24.268763 176.65208Q24.268763 177.01146 24.487513 177.29271Q24.690638 177.55833 25.065638 177.66771Q25.628138 177.85521 26.284388 177.85521L29.550013 177.85521L29.550013 178.90208ZM27.268763 170.82396L27.409388 169.79271Q28.471888 169.96458 29.081263 170.66771Q29.690638 171.37083 29.690638 172.38646Q29.690638 173.66771 28.862513 174.44896Q28.018763 175.21458 26.456263 175.21458Q25.456263 175.21458 24.706263 174.88646Q23.940638 174.54271 23.565638 173.87083Q23.190638 173.18333 23.190638 172.37083Q23.190638 171.37083 23.706263 170.73021Q24.206263 170.07396 25.159388 169.88646L25.315638 170.91771Q24.690638 171.05833 24.378138 171.43333Q24.050013 171.80833 24.050013 172.33958Q24.050013 173.13646 24.628138 173.63646Q25.190638 174.13646 26.425013 174.13646Q27.690638 174.13646 28.253138 173.65208Q28.815638 173.16771 28.815638 172.40208Q28.815638 171.77708 28.440638 171.37083Q28.065638 170.94896 27.268763 170.82396ZM27.550013 164.63646L27.675013 163.54271Q28.628138 163.79271 29.159388 164.49583Q29.690638 165.19896 29.690638 166.27708Q29.690638 167.63646 28.846888 168.44896Q28.003138 169.24583 26.487513 169.24583Q24.925013 169.24583 24.065638 168.43333Q23.190638 167.62083 23.190638 166.33958Q23.190638 165.08958 24.034388 164.30833Q24.878138 163.51146 26.425013 163.51146Q26.518763 163.51146 26.706263 163.51146L26.706263 168.15208Q27.737513 168.08958 28.284388 167.57396Q28.815638 167.05833 28.815638 166.27708Q28.815638 165.69896 28.518763 165.29271Q28.206263 164.87083 27.550013 164.63646ZM25.846888 168.08958L25.846888 164.62083Q25.050013 164.68333 24.659388 165.01146Q24.050013 165.52708 24.050013 166.32396Q24.050013 167.05833 24.534388 167.55833Q25.018763 168.04271 25.846888 168.08958ZM32.08126 156.87083Q30.971888 157.74583 29.503138 158.35521Q28.018763 158.94896 26.440638 158.94896Q25.050013 158.94896 23.768763 158.51146Q22.284388 157.98021 20.815638 156.87083L20.815638 156.12083Q22.034388 156.82396 22.550013 157.05833Q23.362513 157.41771 24.237513 157.62083Q25.331263 157.87083 26.440638 157.87083Q29.268763 157.87083 32.08126 156.12083L32.08126 156.87083ZM29.550013 154.76146L20.956263 154.76146L20.956263 153.60521L27.706263 149.08958L20.956263 149.08958L20.956263 147.99583L29.550013 147.99583L29.550013 149.16771L22.800013 153.68333L29.550013 153.68333L29.550013 154.76146ZM32.08126 145.19896L32.08126 145.94896Q29.268763 144.19896 26.440638 144.19896Q25.346888 144.19896 24.253138 144.44896Q23.378138 144.65208 22.565638 145.01146Q22.050013 145.24583 20.815638 145.94896L20.815638 145.19896Q22.284388 144.10521 23.768763 143.57396Q25.050013 143.12083 26.440638 143.12083Q28.018763 143.12083 29.503138 143.73021Q30.971888 144.33958 32.08126 145.19896Z" fill-rule="nonzero"/><path fill="#000000" d="M65.05 300.21564Q65.05 298.6844 65.3625 297.7625Q65.675 296.825 66.28438 296.325Q66.90938 295.825 67.84688 295.825Q68.53438 295.825 69.05 296.10626Q69.58125 296.3875 69.925 296.91876Q70.26875 297.4344 70.45625 298.1844Q70.64375 298.9344 70.64375 300.21564Q70.64375 301.73126 70.33125 302.65314Q70.03438 303.575 69.40938 304.09064Q68.8 304.59064 67.84688 304.59064Q66.6125 304.59064 65.89375 303.7Q65.05 302.6375 65.05 300.21564ZM66.12813 300.21564Q66.12813 302.325 66.62813 303.02814Q67.12813 303.73126 67.84688 303.73126Q68.58125 303.73126 69.06563 303.02814Q69.56563 302.325 69.56563 300.21564Q69.56563 298.09064 69.06563 297.40314Q68.58125 296.7 67.83125 296.7Q67.1125 296.7 66.675 297.3094Q66.12813 298.09064 66.12813 300.21564Z" fill-rule="nonzero"/><path fill="#000000" d="M70.59688 243.80104L70.59688 244.81667L64.90938 244.81667Q64.90938 244.44167 65.03438 244.08229Q65.25313 243.50417 65.72188 242.94167Q66.20625 242.37917 67.1125 241.64479Q68.51875 240.48854 69.00313 239.81667Q69.50313 239.14479 69.50313 238.55104Q69.50313 237.92604 69.05 237.50417Q68.59688 237.06667 67.87813 237.06667Q67.1125 237.06667 66.65938 237.51979Q66.20625 237.97292 66.19063 238.78542L65.1125 238.67604Q65.22188 237.45729 65.94063 236.83229Q66.675 236.19167 67.90938 236.19167Q69.14375 236.19167 69.8625 236.87917Q70.58125 237.56667 70.58125 238.58229Q70.58125 239.09792 70.3625 239.59792Q70.15938 240.08229 69.65938 240.64479Q69.175 241.19167 68.05 242.14479Q67.09688 242.94167 66.81563 243.23854Q66.55 243.51979 66.37813 243.80104L70.59688 243.80104Z" fill-rule="nonzero"/><path fill="#000000" d="M68.425 185.18333L68.425 183.12083L64.70625 183.12083L64.70625 182.15208L68.62813 176.58958L69.4875 176.58958L69.4875 182.15208L70.64375 182.15208L70.64375 183.12083L69.4875 183.12083L69.4875 185.18333L68.425 185.18333ZM68.425 182.15208L68.425 178.29271L65.7375 182.15208L68.425 182.15208Z" fill-rule="nonzero"/><path fill="#000000" d="M70.51875 119.06563L69.47188 119.14375Q69.33125 118.51875 69.08125 118.2375Q68.64375 117.78438 68.01875 117.78438Q67.51875 117.78438 67.12813 118.06563Q66.64375 118.44063 66.34688 119.14375Q66.06563 119.83125 66.05 121.1125Q66.425 120.53438 66.97188 120.25313Q67.53438 119.97188 68.14375 119.97188Q69.19063 119.97188 69.925 120.75313Q70.675 121.53438 70.675 122.75313Q70.675 123.56563 70.31563 124.26875Q69.97188 124.95625 69.3625 125.33125Q68.75313 125.69063 67.9875 125.69063Q66.65938 125.69063 65.83125 124.72188Q65.00313 123.75313 65.00313 121.53438Q65.00313 119.03438 65.925 117.90938Q66.72188 116.925 68.08125 116.925Q69.09688 116.925 69.7375 117.50313Q70.39375 118.06563 70.51875 119.06563ZM66.22188 122.76875Q66.22188 123.31563 66.44063 123.81563Q66.675 124.3 67.08125 124.56563Q67.50313 124.83125 67.97188 124.83125Q68.62813 124.83125 69.1125 124.3Q69.59688 123.75313 69.59688 122.83125Q69.59688 121.94063 69.1125 121.425Q68.64375 120.90938 67.925 120.90938Q67.20625 120.90938 66.70625 121.425Q66.22188 121.94063 66.22188 122.76875Z" fill-rule="nonzero"/><path fill="#000000" d="M66.675 61.260414Q66.01875 61.010414 65.69063 60.572914Q65.37813 60.11979 65.37813 59.510414Q65.37813 58.572914 66.05 57.93229Q66.7375 57.291664 67.84688 57.291664Q68.97188 57.291664 69.65938 57.947914Q70.34688 58.604164 70.34688 59.541664Q70.34688 60.135414 70.03438 60.572914Q69.72188 61.010414 69.08125 61.260414Q69.87813 61.510414 70.28438 62.08854Q70.69063 62.666664 70.69063 63.46354Q70.69063 64.55729 69.90938 65.30729Q69.14375 66.05729 67.8625 66.05729Q66.59688 66.05729 65.81563 65.30729Q65.03438 64.55729 65.03438 63.43229Q65.03438 62.58854 65.45625 62.02604Q65.89375 61.46354 66.675 61.260414ZM66.45625 59.46354Q66.45625 60.072914 66.84688 60.46354Q67.25313 60.854164 67.87813 60.854164Q68.4875 60.854164 68.87813 60.479164Q69.26875 60.08854 69.26875 59.52604Q69.26875 58.947914 68.8625 58.55729Q68.45625 58.15104 67.8625 58.15104Q67.25313 58.15104 66.84688 58.541664Q66.45625 58.93229 66.45625 59.46354ZM66.12813 63.43229Q66.12813 63.885414 66.33125 64.30729Q66.55 64.729164 66.97188 64.96354Q67.39375 65.197914 67.87813 65.197914Q68.62813 65.197914 69.1125 64.71354Q69.6125 64.229164 69.6125 63.479164Q69.6125 62.71354 69.1125 62.21354Q68.6125 61.71354 67.84688 61.71354Q67.09688 61.71354 66.6125 62.21354Q66.12813 62.697914 66.12813 63.43229Z" fill-rule="nonzero"/><path fill="#000000" d="M72.86077 313.21564Q72.86077 311.6844 73.17327 310.7625Q73.48577 309.825 74.095146 309.325Q74.720146 308.825 75.657646 308.825Q76.345146 308.825 76.86077 309.10626Q77.39202 309.3875 77.73577 309.91876Q78.07952 310.4344 78.26702 311.1844Q78.45452 311.9344 78.45452 313.21564Q78.45452 314.73126 78.14202 315.65314Q77.845146 316.575 77.220146 317.09064Q76.61077 317.59064 75.657646 317.59064Q74.42327 317.59064 73.70452 316.7Q72.86077 315.6375 72.86077 313.21564ZM73.938896 313.21564Q73.938896 315.325 74.438896 316.02814Q74.938896 316.73126 75.657646 316.73126Q76.39202 316.73126 76.876396 316.02814Q77.376396 315.325 77.376396 313.21564Q77.376396 311.09064 76.876396 310.40314Q76.39202 309.7 75.64202 309.7Q74.92327 309.7 74.48577 310.3094Q73.938896 311.09064 73.938896 313.21564ZM80.45452 317.45L80.45452 316.2469L81.657646 316.2469L81.657646 317.45L80.45452 317.45ZM82.86077 313.21564Q82.86077 311.6844 83.17327 310.7625Q83.48577 309.825 84.095146 309.325Q84.720146 308.825 85.657646 308.825Q86.345146 308.825 86.86077 309.10626Q87.39202 309.3875 87.73577 309.91876Q88.07952 310.4344 88.26702 311.1844Q88.45452 311.9344 88.45452 313.21564Q88.45452 314.73126 88.14202 315.65314Q87.845146 316.575 87.220146 317.09064Q86.61077 317.59064 85.657646 317.59064Q84.42327 317.59064 83.70452 316.7Q82.86077 315.6375 82.86077 313.21564ZM83.938896 313.21564Q83.938896 315.325 84.438896 316.02814Q84.938896 316.73126 85.657646 316.73126Q86.39202 316.73126 86.876396 316.02814Q87.376396 315.325 87.376396 313.21564Q87.376396 311.09064 86.876396 310.40314Q86.39202 309.7 85.64202 309.7Q84.92327 309.7 84.48577 310.3094Q83.938896 311.09064 83.938896 313.21564ZM89.86077 313.21564Q89.86077 311.6844 90.17327 310.7625Q90.48577 309.825 91.095146 309.325Q91.720146 308.825 92.657646 308.825Q93.345146 308.825 93.86077 309.10626Q94.39202 309.3875 94.73577 309.91876Q95.07952 310.4344 95.26702 311.1844Q95.45452 311.9344 95.45452 313.21564Q95.45452 314.73126 95.14202 315.65314Q94.845146 316.575 94.220146 317.09064Q93.61077 317.59064 92.657646 317.59064Q91.42327 317.59064 90.70452 316.7Q89.86077 315.6375 89.86077 313.21564ZM90.938896 313.21564Q90.938896 315.325 91.438896 316.02814Q91.938896 316.73126 92.657646 316.73126Q93.39202 316.73126 93.876396 316.02814Q94.376396 315.325 94.376396 313.21564Q94.376396 311.09064 93.876396 310.40314Q93.39202 309.7 92.64202 309.7Q91.92327 309.7 91.48577 310.3094Q90.938896 311.09064 90.938896 313.21564Z" fill-rule="nonzero"/><path fill="#000000" d="M212.94034 313.21564Q212.94034 311.6844 213.25284 310.7625Q213.56534 309.825 214.17471 309.325Q214.79971 308.825 215.73721 308.825Q216.42471 308.825 216.94034 309.10626Q217.47159 309.3875 217.81534 309.91876Q218.15909 310.4344 218.34659 311.1844Q218.53409 311.9344 218.53409 313.21564Q218.53409 314.73126 218.22159 315.65314Q217.92471 316.575 217.29971 317.09064Q216.69034 317.59064 215.73721 317.59064Q214.50284 317.59064 213.78409 316.7Q212.94034 315.6375 212.94034 313.21564ZM214.01846 313.21564Q214.01846 315.325 214.51846 316.02814Q215.01846 316.73126 215.73721 316.73126Q216.47159 316.73126 216.95596 316.02814Q217.45596 315.325 217.45596 313.21564Q217.45596 311.09064 216.95596 310.40314Q216.47159 309.7 215.72159 309.7Q215.00284 309.7 214.56534 310.3094Q214.01846 311.09064 214.01846 313.21564ZM220.53409 317.45L220.53409 316.2469L221.73721 316.2469L221.73721 317.45L220.53409 317.45ZM222.94034 313.21564Q222.94034 311.6844 223.25284 310.7625Q223.56534 309.825 224.17471 309.325Q224.79971 308.825 225.73721 308.825Q226.42471 308.825 226.94034 309.10626Q227.47159 309.3875 227.81534 309.91876Q228.15909 310.4344 228.34659 311.1844Q228.53409 311.9344 228.53409 313.21564Q228.53409 314.73126 228.22159 315.65314Q227.92471 316.575 227.29971 317.09064Q226.69034 317.59064 225.73721 317.59064Q224.50284 317.59064 223.78409 316.7Q222.94034 315.6375 222.94034 313.21564ZM224.01846 313.21564Q224.01846 315.325 224.51846 316.02814Q225.01846 316.73126 225.73721 316.73126Q226.47159 316.73126 226.95596 316.02814Q227.45596 315.325 227.45596 313.21564Q227.45596 311.09064 226.95596 310.40314Q226.47159 309.7 225.72159 309.7Q225.00284 309.7 224.56534 310.3094Q224.01846 311.09064 224.01846 313.21564ZM233.90909 317.45L232.86221 317.45L232.86221 310.73126Q232.47159 311.09064 231.84659 311.46564Q231.23721 311.825 230.75284 311.9969L230.75284 310.98126Q231.62784 310.5594 232.28409 309.98126Q232.95596 309.3875 233.23721 308.825L233.90909 308.825L233.90909 317.45Z" fill-rule="nonzero"/><path fill="#000000" d="M353.0199 313.21564Q353.0199 311.6844 353.3324 310.7625Q353.6449 309.825 354.25427 309.325Q354.87927 308.825 355.81677 308.825Q356.50427 308.825 357.0199 309.10626Q357.55115 309.3875 357.8949 309.91876Q358.23865 310.4344 358.42615 311.1844Q358.61365 311.9344 358.61365 313.21564Q358.61365 314.73126 358.30115 315.65314Q358.00427 316.575 357.37927 317.09064Q356.7699 317.59064 355.81677 317.59064Q354.5824 317.59064 353.86365 316.7Q353.0199 315.6375 353.0199 313.21564ZM354.09802 313.21564Q354.09802 315.325 354.59802 316.02814Q355.09802 316.73126 355.81677 316.73126Q356.55115 316.73126 357.03552 316.02814Q357.53552 315.325 357.53552 313.21564Q357.53552 311.09064 357.03552 310.40314Q356.55115 309.7 355.80115 309.7Q355.0824 309.7 354.6449 310.3094Q354.09802 311.09064 354.09802 313.21564ZM360.61365 317.45L360.61365 316.2469L361.81677 316.2469L361.81677 317.45L360.61365 317.45ZM363.0199 313.21564Q363.0199 311.6844 363.3324 310.7625Q363.6449 309.825 364.25427 309.325Q364.87927 308.825 365.81677 308.825Q366.50427 308.825 367.0199 309.10626Q367.55115 309.3875 367.8949 309.91876Q368.23865 310.4344 368.42615 311.1844Q368.61365 311.9344 368.61365 313.21564Q368.61365 314.73126 368.30115 315.65314Q368.00427 316.575 367.37927 317.09064Q366.7699 317.59064 365.81677 317.59064Q364.5824 317.59064 363.86365 316.7Q363.0199 315.6375 363.0199 313.21564ZM364.09802 313.21564Q364.09802 315.325 364.59802 316.02814Q365.09802 316.73126 365.81677 316.73126Q366.55115 316.73126 367.03552 316.02814Q367.53552 315.325 367.53552 313.21564Q367.53552 311.09064 367.03552 310.40314Q366.55115 309.7 365.80115 309.7Q365.0824 309.7 364.6449 310.3094Q364.09802 311.09064 364.09802 313.21564ZM375.56677 316.4344L375.56677 317.45L369.87927 317.45Q369.87927 317.075 370.00427 316.71564Q370.22302 316.1375 370.69177 315.575Q371.17615 315.0125 372.0824 314.27814Q373.48865 313.1219 373.97302 312.45Q374.47302 311.77814 374.47302 311.1844Q374.47302 310.5594 374.0199 310.1375Q373.56677 309.7 372.84802 309.7Q372.0824 309.7 371.62927 310.15314Q371.17615 310.60626 371.16052 311.41876L370.0824 311.3094Q370.19177 310.09064 370.91052 309.46564Q371.6449 308.825 372.87927 308.825Q374.11365 308.825 374.8324 309.5125Q375.55115 310.2 375.55115 311.21564Q375.55115 311.73126 375.3324 312.23126Q375.12927 312.71564 374.62927 313.27814Q374.1449 313.825 373.0199 314.77814Q372.06677 315.575 371.78552 315.8719Q371.5199 316.15314 371.34802 316.4344L375.56677 316.4344Z" fill-rule="nonzero"/><path fill="#000000" d="M493.09946 313.21564Q493.09946 311.6844 493.41196 310.7625Q493.72446 309.825 494.33383 309.325Q494.95883 308.825 495.89633 308.825Q496.58383 308.825 497.09946 309.10626Q497.6307 309.3875 497.97446 309.91876Q498.3182 310.4344 498.5057 311.1844Q498.6932 311.9344 498.6932 313.21564Q498.6932 314.73126 498.3807 315.65314Q498.08383 316.575 497.45883 317.09064Q496.84946 317.59064 495.89633 317.59064Q494.66196 317.59064 493.9432 316.7Q493.09946 315.6375 493.09946 313.21564ZM494.17758 313.21564Q494.17758 315.325 494.67758 316.02814Q495.17758 316.73126 495.89633 316.73126Q496.6307 316.73126 497.11508 316.02814Q497.61508 315.325 497.61508 313.21564Q497.61508 311.09064 497.11508 310.40314Q496.6307 309.7 495.8807 309.7Q495.16196 309.7 494.72446 310.3094Q494.17758 311.09064 494.17758 313.21564ZM500.6932 317.45L500.6932 316.2469L501.89633 316.2469L501.89633 317.45L500.6932 317.45ZM503.09946 313.21564Q503.09946 311.6844 503.41196 310.7625Q503.72446 309.825 504.33383 309.325Q504.95883 308.825 505.89633 308.825Q506.58383 308.825 507.09946 309.10626Q507.6307 309.3875 507.97446 309.91876Q508.3182 310.4344 508.5057 311.1844Q508.6932 311.9344 508.6932 313.21564Q508.6932 314.73126 508.3807 315.65314Q508.08383 316.575 507.45883 317.09064Q506.84946 317.59064 505.89633 317.59064Q504.66196 317.59064 503.9432 316.7Q503.09946 315.6375 503.09946 313.21564ZM504.17758 313.21564Q504.17758 315.325 504.67758 316.02814Q505.17758 316.73126 505.89633 316.73126Q506.6307 316.73126 507.11508 316.02814Q507.61508 315.325 507.61508 313.21564Q507.61508 311.09064 507.11508 310.40314Q506.6307 309.7 505.8807 309.7Q505.16196 309.7 504.72446 310.3094Q504.17758 311.09064 504.17758 313.21564ZM510.09946 315.1844L511.16196 315.04376Q511.33383 315.9344 511.77133 316.34064Q512.20886 316.73126 512.83386 316.73126Q513.58386 316.73126 514.0995 316.21564Q514.6151 315.7 514.6151 314.9344Q514.6151 314.21564 514.13074 313.7469Q513.662 313.2625 512.9276 313.2625Q512.63074 313.2625 512.1776 313.3875L512.3026 312.45Q512.412 312.46564 512.4745 312.46564Q513.14636 312.46564 513.6776 312.1219Q514.2245 311.7625 514.2245 311.02814Q514.2245 310.45 513.83386 310.075Q513.44324 309.6844 512.81824 309.6844Q512.20886 309.6844 511.78696 310.075Q511.3807 310.46564 511.27133 311.23126L510.20883 311.04376Q510.39633 309.9969 511.08383 309.41876Q511.77133 308.825 512.787 308.825Q513.4901 308.825 514.08386 309.1375Q514.6776 309.4344 514.9901 309.95Q515.3026 310.46564 515.3026 311.0594Q515.3026 311.60626 515.00574 312.075Q514.70886 312.52814 514.13074 312.79376Q514.88074 312.96564 515.3026 313.52814Q515.7245 314.075 515.7245 314.91876Q515.7245 316.04376 514.89636 316.825Q514.08386 317.60626 512.83386 317.60626Q511.70883 317.60626 510.95883 316.9344Q510.20883 316.2469 510.09946 315.1844Z" fill-rule="nonzero"/><path fill="#757575" d="M19.45625 32.95625L21.2375 32.8Q21.3625 33.8625 21.815624 34.55Q22.284374 35.2375 23.253124 35.675Q24.2375 36.096874 25.471874 36.096874Q26.55 36.096874 27.378124 35.784374Q28.20625 35.45625 28.6125 34.89375Q29.01875 34.33125 29.01875 33.659374Q29.01875 32.9875 28.628124 32.4875Q28.2375 31.9875 27.346874 31.64375Q26.76875 31.409374 24.784374 30.940624Q22.815624 30.471874 22.034374 30.05Q21.003124 29.51875 20.503124 28.721874Q20.003124 27.925 20.003124 26.940624Q20.003124 25.846874 20.6125 24.909374Q21.221874 23.971874 22.409374 23.4875Q23.596874 22.9875 25.034374 22.9875Q26.628124 22.9875 27.846874 23.503124Q29.065624 24.01875 29.70625 25.01875Q30.3625 26.003124 30.409374 27.26875L28.596874 27.409374Q28.45625 26.05 27.6125 25.3625Q26.76875 24.659374 25.1125 24.659374Q23.39375 24.659374 22.596874 25.3Q21.815624 25.925 21.815624 26.8Q21.815624 27.58125 22.378124 28.08125Q22.925 28.58125 25.2375 29.096874Q27.55 29.6125 28.409374 30.003124Q29.659374 30.58125 30.253124 31.471874Q30.846874 32.346874 30.846874 33.503124Q30.846874 34.64375 30.190624 35.659374Q29.534374 36.675 28.3 37.2375Q27.08125 37.8 25.55 37.8Q23.6125 37.8 22.3 37.2375Q20.9875 36.659374 20.2375 35.51875Q19.4875 34.378124 19.45625 32.95625ZM32.8625 41.51875L32.8625 27.175L34.471874 27.175L34.471874 28.51875Q35.034374 27.7375 35.7375 27.346874Q36.45625 26.940624 37.471874 26.940624Q38.8 26.940624 39.815624 27.628124Q40.83125 28.315624 41.346874 29.565624Q41.878124 30.8 41.878124 32.284374Q41.878124 33.878124 41.3 35.159374Q40.7375 36.425 39.64375 37.1125Q38.55 37.784374 37.346874 37.784374Q36.471874 37.784374 35.76875 37.409374Q35.08125 37.034374 34.628124 36.471874L34.628124 41.51875L32.8625 41.51875ZM34.45625 32.425Q34.45625 34.425 35.26875 35.378124Q36.08125 36.33125 37.2375 36.33125Q38.409374 36.33125 39.2375 35.346874Q40.08125 34.3625 40.08125 32.26875Q40.08125 30.3 39.253124 29.315624Q38.440624 28.315624 37.315624 28.315624Q36.190624 28.315624 35.315624 29.378124Q34.45625 30.425 34.45625 32.425ZM43.846874 37.55L43.846874 27.175L45.425 27.175L45.425 28.753124Q46.034374 27.64375 46.55 27.3Q47.065624 26.940624 47.675 26.940624Q48.565624 26.940624 49.4875 27.503124L48.878124 29.14375Q48.2375 28.753124 47.596874 28.753124Q47.01875 28.753124 46.55 29.1125Q46.096874 29.45625 45.89375 30.065624Q45.6125 31.003124 45.6125 32.1125L45.6125 37.55L43.846874 37.55ZM50.878124 25.253124L50.878124 23.2375L52.64375 23.2375L52.64375 25.253124L50.878124 25.253124ZM50.878124 37.55L50.878124 27.175L52.64375 27.175L52.64375 37.55L50.878124 37.55ZM54.8625 37.55L54.8625 27.175L56.45625 27.175L56.45625 28.659374Q57.596874 26.940624 59.753124 26.940624Q60.690624 26.940624 61.471874 27.284374Q62.26875 27.6125 62.659374 28.159374Q63.05 28.70625 63.20625 29.45625Q63.3 29.95625 63.3 31.175L63.3 37.55L61.534374 37.55L61.534374 31.2375Q61.534374 30.159374 61.33125 29.628124Q61.128124 29.096874 60.596874 28.784374Q60.08125 28.471874 59.378124 28.471874Q58.253124 28.471874 57.440624 29.190624Q56.628124 29.89375 56.628124 31.878124L56.628124 37.55L54.8625 37.55ZM65.55 38.409374L67.25313 38.659374Q67.3625 39.45625 67.84688 39.815624Q68.50313 40.3 69.64375 40.3Q70.8625 40.3 71.51875 39.815624Q72.19063 39.33125 72.425 38.45625Q72.56563 37.909374 72.55 36.190624Q71.39375 37.55 69.675 37.55Q67.53438 37.55 66.3625 36.003124Q65.19063 34.45625 65.19063 32.3Q65.19063 30.815624 65.72188 29.565624Q66.26875 28.315624 67.28438 27.628124Q68.31563 26.940624 69.69063 26.940624Q71.51875 26.940624 72.72188 28.425L72.72188 27.175L74.33125 27.175L74.33125 36.14375Q74.33125 38.565624 73.83125 39.565624Q73.34688 40.58125 72.26875 41.159374Q71.20625 41.753124 69.64375 41.753124Q67.8 41.753124 66.64375 40.925Q65.50313 40.096874 65.55 38.409374ZM67.00313 32.175Q67.00313 34.221874 67.81563 35.159374Q68.62813 36.096874 69.84688 36.096874Q71.05 36.096874 71.8625 35.159374Q72.69063 34.221874 72.69063 32.2375Q72.69063 30.33125 71.84688 29.3625Q71.00313 28.39375 69.81563 28.39375Q68.64375 28.39375 67.81563 29.346874Q67.00313 30.3 67.00313 32.175ZM83.19063 37.55L83.19063 23.2375L92.84688 23.2375L92.84688 24.925L85.08125 24.925L85.08125 29.3625L91.8 29.3625L91.8 31.05L85.08125 31.05L85.08125 37.55L83.19063 37.55ZM94.22188 32.3625Q94.22188 29.4875 95.81563 28.096874Q97.15938 26.940624 99.08125 26.940624Q101.22188 26.940624 102.56563 28.346874Q103.925 29.753124 103.925 32.221874Q103.925 34.221874 103.33125 35.378124Q102.7375 36.51875 101.58125 37.159374Q100.44063 37.784374 99.08125 37.784374Q96.89375 37.784374 95.55 36.39375Q94.22188 34.9875 94.22188 32.3625ZM96.01875 32.3625Q96.01875 34.3625 96.87813 35.346874Q97.75313 36.33125 99.08125 36.33125Q100.39375 36.33125 101.25313 35.346874Q102.12813 34.346874 102.12813 32.3Q102.12813 30.378124 101.25313 29.39375Q100.37813 28.39375 99.08125 28.39375Q97.75313 28.39375 96.87813 29.39375Q96.01875 30.378124 96.01875 32.3625ZM105.84688 37.55L105.84688 27.175L107.425 27.175L107.425 28.753124Q108.03438 27.64375 108.55 27.3Q109.06563 26.940624 109.675 26.940624Q110.56563 26.940624 111.4875 27.503124L110.87813 29.14375Q110.2375 28.753124 109.59688 28.753124Q109.01875 28.753124 108.55 29.1125Q108.09688 29.45625 107.89375 30.065624Q107.6125 31.003124 107.6125 32.1125L107.6125 37.55L105.84688 37.55ZM119.64375 33.753124L121.3625 33.971874Q121.08125 35.76875 119.90938 36.784374Q118.75313 37.784374 117.05 37.784374Q114.925 37.784374 113.62813 36.39375Q112.33125 35.003124 112.33125 32.409374Q112.33125 30.721874 112.87813 29.471874Q113.44063 28.20625 114.58125 27.58125Q115.72188 26.940624 117.06563 26.940624Q118.75313 26.940624 119.81563 27.8Q120.89375 28.659374 121.20625 30.221874L119.4875 30.4875Q119.25313 29.440624 118.62813 28.925Q118.00313 28.39375 117.12813 28.39375Q115.8 28.39375 114.97188 29.346874Q114.14375 30.3 114.14375 32.346874Q114.14375 34.440624 114.94063 35.39375Q115.7375 36.33125 117.03438 36.33125Q118.06563 36.33125 118.75313 35.70625Q119.45625 35.065624 119.64375 33.753124ZM129.97188 34.20625L131.78438 34.440624Q131.3625 36.01875 130.19063 36.909374Q129.03438 37.784374 127.22188 37.784374Q124.95625 37.784374 123.6125 36.39375Q122.28438 34.9875 122.28438 32.45625Q122.28438 29.83125 123.62813 28.39375Q124.97188 26.940624 127.12813 26.940624Q129.20625 26.940624 130.51875 28.3625Q131.84688 29.76875 131.84688 32.346874Q131.84688 32.503124 131.83125 32.815624L124.09688 32.815624Q124.19063 34.51875 125.06563 35.425Q125.94063 36.33125 127.2375 36.33125Q128.20625 36.33125 128.87813 35.83125Q129.56563 35.315624 129.97188 34.20625ZM124.19063 31.3625L129.9875 31.3625Q129.87813 30.065624 129.33125 29.409374Q128.4875 28.39375 127.14375 28.39375Q125.94063 28.39375 125.1125 29.20625Q124.28438 30.003124 124.19063 31.3625ZM143.22188 41.753124Q141.76875 39.925 140.76875 37.471874Q139.76875 35.003124 139.76875 32.3625Q139.76875 30.034374 140.51875 27.909374Q141.39375 25.440624 143.22188 22.9875L144.4875 22.9875Q143.3 25.01875 142.925 25.89375Q142.33125 27.2375 141.9875 28.70625Q141.56563 30.534374 141.56563 32.378124Q141.56563 37.065624 144.4875 41.753124L143.22188 41.753124ZM147.08125 37.55L147.08125 23.2375L149.01875 23.2375L156.53438 34.471874L156.53438 23.2375L158.34688 23.2375L158.34688 37.55L156.40938 37.55L148.89375 26.3L148.89375 37.55L147.08125 37.55ZM162.01875 41.753124L160.76875 41.753124Q163.675 37.065624 163.675 32.378124Q163.675 30.534374 163.26875 28.7375Q162.925 27.26875 162.33125 25.925Q161.95625 25.034374 160.76875 22.9875L162.01875 22.9875Q163.8625 25.440624 164.7375 27.909374Q165.4875 30.034374 165.4875 32.3625Q165.4875 35.003124 164.47188 37.471874Q163.47188 39.925 162.01875 41.753124ZM176.75313 37.55L172.8 27.175L174.65938 27.175L176.89375 33.39375Q177.25313 34.39375 177.55 35.471874Q177.78438 34.659374 178.20625 33.503124L180.50313 27.175L182.31563 27.175L178.39375 37.55L176.75313 37.55ZM183.15938 34.45625L184.90938 34.175Q185.05 35.221874 185.72188 35.784374Q186.39375 36.33125 187.59688 36.33125Q188.8 36.33125 189.37813 35.846874Q189.97188 35.346874 189.97188 34.690624Q189.97188 34.096874 189.45625 33.753124Q189.09688 33.51875 187.65938 33.159374Q185.72188 32.659374 184.97188 32.315624Q184.2375 31.95625 183.84688 31.33125Q183.45625 30.690624 183.45625 29.925Q183.45625 29.2375 183.76875 28.64375Q184.09688 28.05 184.64375 27.659374Q185.05 27.3625 185.75313 27.159374Q186.47188 26.940624 187.28438 26.940624Q188.50313 26.940624 189.425 27.3Q190.34688 27.64375 190.78438 28.253124Q191.22188 28.846874 191.39375 29.846874L189.675 30.08125Q189.55 29.284374 188.9875 28.846874Q188.425 28.39375 187.40938 28.39375Q186.19063 28.39375 185.675 28.8Q185.15938 29.190624 185.15938 29.721874Q185.15938 30.065624 185.37813 30.346874Q185.58125 30.628124 186.05 30.815624Q186.31563 30.909374 187.59688 31.253124Q189.47188 31.753124 190.20625 32.08125Q190.94063 32.39375 191.3625 33.003124Q191.78438 33.596874 191.78438 34.503124Q191.78438 35.378124 191.26875 36.159374Q190.75313 36.940624 189.78438 37.3625Q188.81563 37.784374 187.59688 37.784374Q185.58125 37.784374 184.51875 36.940624Q183.45625 36.096874 183.15938 34.45625ZM194.3625 37.55L194.3625 35.55L196.3625 35.55L196.3625 37.55L194.3625 37.55ZM206.09688 37.55L206.09688 23.2375L211.01875 23.2375Q212.69063 23.2375 213.58125 23.440624Q214.8 23.721874 215.675 24.45625Q216.8 25.425 217.3625 26.909374Q217.925 28.39375 217.925 30.315624Q217.925 31.940624 217.55 33.20625Q217.175 34.45625 216.56563 35.284374Q215.97188 36.1125 215.26875 36.596874Q214.56563 37.065624 213.56563 37.315624Q212.56563 37.55 211.25313 37.55L206.09688 37.55ZM207.9875 35.8625L211.05 35.8625Q212.45625 35.8625 213.25313 35.596874Q214.06563 35.33125 214.55 34.846874Q215.22188 34.175 215.59688 33.05Q215.97188 31.909374 215.97188 30.284374Q215.97188 28.034374 215.2375 26.83125Q214.50313 25.628124 213.44063 25.221874Q212.69063 24.925 211.00313 24.925L207.9875 24.925L207.9875 35.8625ZM219.87813 25.253124L219.87813 23.2375L221.64375 23.2375L221.64375 25.253124L219.87813 25.253124ZM219.87813 37.55L219.87813 27.175L221.64375 27.175L221.64375 37.55L219.87813 37.55ZM223.15938 34.45625L224.90938 34.175Q225.05 35.221874 225.72188 35.784374Q226.39375 36.33125 227.59688 36.33125Q228.8 36.33125 229.37813 35.846874Q229.97188 35.346874 229.97188 34.690624Q229.97188 34.096874 229.45625 33.753124Q229.09688 33.51875 227.65938 33.159374Q225.72188 32.659374 224.97188 32.315624Q224.2375 31.95625 223.84688 31.33125Q223.45625 30.690624 223.45625 29.925Q223.45625 29.2375 223.76875 28.64375Q224.09688 28.05 224.64375 27.659374Q225.05 27.3625 225.75313 27.159374Q226.47188 26.940624 227.28438 26.940624Q228.50313 26.940624 229.425 27.3Q230.34688 27.64375 230.78438 28.253124Q231.22188 28.846874 231.39375 29.846874L229.675 30.08125Q229.55 29.284374 228.9875 28.846874Q228.425 28.39375 227.40938 28.39375Q226.19063 28.39375 225.675 28.8Q225.15938 29.190624 225.15938 29.721874Q225.15938 30.065624 225.37813 30.346874Q225.58125 30.628124 226.05 30.815624Q226.31563 30.909374 227.59688 31.253124Q229.47188 31.753124 230.20625 32.08125Q230.94063 32.39375 231.3625 33.003124Q231.78438 33.596874 231.78438 34.503124Q231.78438 35.378124 231.26875 36.159374Q230.75313 36.940624 229.78438 37.3625Q228.81563 37.784374 227.59688 37.784374Q225.58125 37.784374 224.51875 36.940624Q223.45625 36.096874 223.15938 34.45625ZM233.8625 41.51875L233.8625 27.175L235.47188 27.175L235.47188 28.51875Q236.03438 27.7375 236.7375 27.346874Q237.45625 26.940624 238.47188 26.940624Q239.8 26.940624 240.81563 27.628124Q241.83125 28.315624 242.34688 29.565624Q242.87813 30.8 242.87813 32.284374Q242.87813 33.878124 242.3 35.159374Q241.7375 36.425 240.64375 37.1125Q239.55 37.784374 238.34688 37.784374Q237.47188 37.784374 236.76875 37.409374Q236.08125 37.034374 235.62813 36.471874L235.62813 41.51875L233.8625 41.51875ZM235.45625 32.425Q235.45625 34.425 236.26875 35.378124Q237.08125 36.33125 238.2375 36.33125Q239.40938 36.33125 240.2375 35.346874Q241.08125 34.3625 241.08125 32.26875Q241.08125 30.3 240.25313 29.315624Q239.44063 28.315624 238.31563 28.315624Q237.19063 28.315624 236.31563 29.378124Q235.45625 30.425 235.45625 32.425ZM244.83125 37.55L244.83125 23.2375L246.58125 23.2375L246.58125 37.55L244.83125 37.55ZM255.64375 36.26875Q254.65938 37.096874 253.75313 37.440624Q252.84688 37.784374 251.81563 37.784374Q250.1125 37.784374 249.19063 36.95625Q248.26875 36.1125 248.26875 34.815624Q248.26875 34.05 248.6125 33.425Q248.97188 32.8 249.53438 32.425Q250.09688 32.034374 250.8 31.83125Q251.31563 31.70625 252.3625 31.565624Q254.4875 31.315624 255.4875 30.971874Q255.50313 30.6125 255.50313 30.503124Q255.50313 29.440624 255.00313 28.9875Q254.33125 28.39375 253.00313 28.39375Q251.75313 28.39375 251.15938 28.83125Q250.58125 29.26875 250.3 30.378124L248.58125 30.14375Q248.81563 29.034374 249.34688 28.3625Q249.87813 27.675 250.89375 27.315624Q251.90938 26.940624 253.25313 26.940624Q254.58125 26.940624 255.40938 27.253124Q256.2375 27.565624 256.6281 28.05Q257.01874 28.51875 257.175 29.2375Q257.26874 29.690624 257.26874 30.8625L257.26874 33.20625Q257.26874 35.659374 257.3781 36.315624Q257.4875 36.95625 257.83124 37.55L255.9875 37.55Q255.72188 37.003124 255.64375 36.26875ZM255.4875 32.346874Q254.53438 32.7375 252.6125 33.003124Q251.53438 33.159374 251.08125 33.3625Q250.64375 33.55 250.39375 33.925Q250.14375 34.3 250.14375 34.76875Q250.14375 35.471874 250.675 35.940624Q251.20625 36.409374 252.2375 36.409374Q253.25313 36.409374 254.03438 35.971874Q254.83125 35.51875 255.20625 34.753124Q255.4875 34.14375 255.4875 32.9875L255.4875 32.346874ZM266.64374 33.753124L268.3625 33.971874Q268.08124 35.76875 266.90936 36.784374Q265.7531 37.784374 264.05 37.784374Q261.925 37.784374 260.6281 36.39375Q259.33124 35.003124 259.33124 32.409374Q259.33124 30.721874 259.8781 29.471874Q260.4406 28.20625 261.58124 27.58125Q262.72186 26.940624 264.0656 26.940624Q265.7531 26.940624 266.8156 27.8Q267.89374 28.659374 268.20624 30.221874L266.4875 30.4875Q266.2531 29.440624 265.6281 28.925Q265.0031 28.39375 264.1281 28.39375Q262.8 28.39375 261.97186 29.346874Q261.14374 30.3 261.14374 32.346874Q261.14374 34.440624 261.9406 35.39375Q262.7375 36.33125 264.03436 36.33125Q265.0656 36.33125 265.7531 35.70625Q266.45624 35.065624 266.64374 33.753124ZM276.97186 34.20625L278.78436 34.440624Q278.3625 36.01875 277.1906 36.909374Q276.03436 37.784374 274.22186 37.784374Q271.95624 37.784374 270.6125 36.39375Q269.28436 34.9875 269.28436 32.45625Q269.28436 29.83125 270.6281 28.39375Q271.97186 26.940624 274.1281 26.940624Q276.20624 26.940624 277.51874 28.3625Q278.84686 29.76875 278.84686 32.346874Q278.84686 32.503124 278.83124 32.815624L271.09686 32.815624Q271.1906 34.51875 272.0656 35.425Q272.9406 36.33125 274.2375 36.33125Q275.20624 36.33125 275.8781 35.83125Q276.5656 35.315624 276.97186 34.20625ZM271.1906 31.3625L276.9875 31.3625Q276.8781 30.065624 276.33124 29.409374Q275.4875 28.39375 274.14374 28.39375Q272.9406 28.39375 272.1125 29.20625Q271.28436 30.003124 271.1906 31.3625ZM280.8625 37.55L280.8625 27.175L282.4406 27.175L282.4406 28.628124Q282.925 27.878124 283.7375 27.409374Q284.55 26.940624 285.58124 26.940624Q286.7375 26.940624 287.47186 27.425Q288.20624 27.89375 288.51874 28.753124Q289.7531 26.940624 291.72186 26.940624Q293.26874 26.940624 294.09686 27.8Q294.925 28.659374 294.925 30.425L294.925 37.55L293.175 37.55L293.175 31.01875Q293.175 29.95625 293.0031 29.503124Q292.83124 29.034374 292.3781 28.753124Q291.9406 28.471874 291.33124 28.471874Q290.2375 28.471874 289.5031 29.20625Q288.78436 29.925 288.78436 31.51875L288.78436 37.55L287.03436 37.55L287.03436 30.815624Q287.03436 29.64375 286.59686 29.065624Q286.175 28.471874 285.1906 28.471874Q284.45624 28.471874 283.8156 28.8625Q283.1906 29.253124 282.90936 30.003124Q282.6281 30.753124 282.6281 32.175L282.6281 37.55L280.8625 37.55ZM304.97186 34.20625L306.78436 34.440624Q306.3625 36.01875 305.1906 36.909374Q304.03436 37.784374 302.22186 37.784374Q299.95624 37.784374 298.6125 36.39375Q297.28436 34.9875 297.28436 32.45625Q297.28436 29.83125 298.6281 28.39375Q299.97186 26.940624 302.1281 26.940624Q304.20624 26.940624 305.51874 28.3625Q306.84686 29.76875 306.84686 32.346874Q306.84686 32.503124 306.83124 32.815624L299.09686 32.815624Q299.1906 34.51875 300.0656 35.425Q300.9406 36.33125 302.2375 36.33125Q303.20624 36.33125 303.8781 35.83125Q304.5656 35.315624 304.97186 34.20625ZM299.1906 31.3625L304.9875 31.3625Q304.8781 30.065624 304.33124 29.409374Q303.4875 28.39375 302.14374 28.39375Q300.9406 28.39375 300.1125 29.20625Q299.28436 30.003124 299.1906 31.3625ZM308.8625 37.55L308.8625 27.175L310.45624 27.175L310.45624 28.659374Q311.59686 26.940624 313.7531 26.940624Q314.6906 26.940624 315.47186 27.284374Q316.26874 27.6125 316.65936 28.159374Q317.05 28.70625 317.20624 29.45625Q317.3 29.95625 317.3 31.175L317.3 37.55L315.53436 37.55L315.53436 31.2375Q315.53436 30.159374 315.33124 29.628124Q315.1281 29.096874 314.59686 28.784374Q314.08124 28.471874 313.3781 28.471874Q312.2531 28.471874 311.4406 29.190624Q310.6281 29.89375 310.6281 31.878124L310.6281 37.55L308.8625 37.55ZM323.70624 35.971874L323.95624 37.534374Q323.22186 37.690624 322.6281 37.690624Q321.675 37.690624 321.14374 37.39375Q320.6281 37.08125 320.40936 36.596874Q320.1906 36.096874 320.1906 34.51875L320.1906 28.55L318.90936 28.55L318.90936 27.175L320.1906 27.175L320.1906 24.6125L321.9406 23.55L321.9406 27.175L323.70624 27.175L323.70624 28.55L321.9406 28.55L321.9406 34.6125Q321.9406 35.3625 322.03436 35.58125Q322.1281 35.784374 322.33124 35.925Q322.55 36.05 322.9406 36.05Q323.22186 36.05 323.70624 35.971874ZM331.8781 25.253124L331.8781 23.2375L333.64374 23.2375L333.64374 25.253124L331.8781 25.253124ZM331.8781 37.55L331.8781 27.175L333.64374 27.175L333.64374 37.55L331.8781 37.55ZM335.8625 37.55L335.8625 27.175L337.45624 27.175L337.45624 28.659374Q338.59686 26.940624 340.7531 26.940624Q341.6906 26.940624 342.47186 27.284374Q343.26874 27.6125 343.65936 28.159374Q344.05 28.70625 344.20624 29.45625Q344.3 29.95625 344.3 31.175L344.3 37.55L342.53436 37.55L342.53436 31.2375Q342.53436 30.159374 342.33124 29.628124Q342.1281 29.096874 341.59686 28.784374Q341.08124 28.471874 340.3781 28.471874Q339.2531 28.471874 338.4406 29.190624Q337.6281 29.89375 337.6281 31.878124L337.6281 37.55L335.8625 37.55ZM353.03436 37.55L353.03436 23.2375L355.89374 23.2375L359.26874 33.3625Q359.7375 34.784374 359.95624 35.4875Q360.20624 34.70625 360.72186 33.190624L364.14374 23.2375L366.6906 23.2375L366.6906 37.55L364.8781 37.55L364.8781 25.565624L360.70624 37.55L359.0031 37.55L354.8625 25.3625L354.8625 37.55L353.03436 37.55ZM376.97186 34.20625L378.78436 34.440624Q378.3625 36.01875 377.1906 36.909374Q376.03436 37.784374 374.22186 37.784374Q371.95624 37.784374 370.6125 36.39375Q369.28436 34.9875 369.28436 32.45625Q369.28436 29.83125 370.6281 28.39375Q371.97186 26.940624 374.1281 26.940624Q376.20624 26.940624 377.51874 28.3625Q378.84686 29.76875 378.84686 32.346874Q378.84686 32.503124 378.83124 32.815624L371.09686 32.815624Q371.1906 34.51875 372.0656 35.425Q372.9406 36.33125 374.2375 36.33125Q375.20624 36.33125 375.8781 35.83125Q376.5656 35.315624 376.97186 34.20625ZM371.1906 31.3625L376.9875 31.3625Q376.8781 30.065624 376.33124 29.409374Q375.4875 28.39375 374.14374 28.39375Q372.9406 28.39375 372.1125 29.20625Q371.28436 30.003124 371.1906 31.3625ZM384.70624 35.971874L384.95624 37.534374Q384.22186 37.690624 383.6281 37.690624Q382.675 37.690624 382.14374 37.39375Q381.6281 37.08125 381.40936 36.596874Q381.1906 36.096874 381.1906 34.51875L381.1906 28.55L379.90936 28.55L379.90936 27.175L381.1906 27.175L381.1906 24.6125L382.9406 23.55L382.9406 27.175L384.70624 27.175L384.70624 28.55L382.9406 28.55L382.9406 34.6125Q382.9406 35.3625 383.03436 35.58125Q383.1281 35.784374 383.33124 35.925Q383.55 36.05 383.9406 36.05Q384.22186 36.05 384.70624 35.971874ZM393.97186 34.20625L395.78436 34.440624Q395.3625 36.01875 394.1906 36.909374Q393.03436 37.784374 391.22186 37.784374Q388.95624 37.784374 387.6125 36.39375Q386.28436 34.9875 386.28436 32.45625Q386.28436 29.83125 387.6281 28.39375Q388.97186 26.940624 391.1281 26.940624Q393.20624 26.940624 394.51874 28.3625Q395.84686 29.76875 395.84686 32.346874Q395.84686 32.503124 395.83124 32.815624L388.09686 32.815624Q388.1906 34.51875 389.0656 35.425Q389.9406 36.33125 391.2375 36.33125Q392.20624 36.33125 392.8781 35.83125Q393.5656 35.315624 393.97186 34.20625ZM388.1906 31.3625L393.9875 31.3625Q393.8781 30.065624 393.33124 29.409374Q392.4875 28.39375 391.14374 28.39375Q389.9406 28.39375 389.1125 29.20625Q388.28436 30.003124 388.1906 31.3625ZM397.84686 37.55L397.84686 27.175L399.425 27.175L399.425 28.753124Q400.03436 27.64375 400.55 27.3Q401.0656 26.940624 401.675 26.940624Q402.5656 26.940624 403.4875 27.503124L402.8781 29.14375Q402.2375 28.753124 401.59686 28.753124Q401.01874 28.753124 400.55 29.1125Q400.09686 29.45625 399.89374 30.065624Q399.6125 31.003124 399.6125 32.1125L399.6125 37.55L397.84686 37.55ZM404.15936 34.45625L405.90936 34.175Q406.05 35.221874 406.72186 35.784374Q407.39374 36.33125 408.59686 36.33125Q409.8 36.33125 410.3781 35.846874Q410.97186 35.346874 410.97186 34.690624Q410.97186 34.096874 410.45624 33.753124Q410.09686 33.51875 408.65936 33.159374Q406.72186 32.659374 405.97186 32.315624Q405.2375 31.95625 404.84686 31.33125Q404.45624 30.690624 404.45624 29.925Q404.45624 29.2375 404.76874 28.64375Q405.09686 28.05 405.64374 27.659374Q406.05 27.3625 406.7531 27.159374Q407.47186 26.940624 408.28436 26.940624Q409.5031 26.940624 410.425 27.3Q411.34686 27.64375 411.78436 28.253124Q412.22186 28.846874 412.39374 29.846874L410.675 30.08125Q410.55 29.284374 409.9875 28.846874Q409.425 28.39375 408.40936 28.39375Q407.1906 28.39375 406.675 28.8Q406.15936 29.190624 406.15936 29.721874Q406.15936 30.065624 406.3781 30.346874Q406.58124 30.628124 407.05 30.815624Q407.3156 30.909374 408.59686 31.253124Q410.47186 31.753124 411.20624 32.08125Q411.9406 32.39375 412.3625 33.003124Q412.78436 33.596874 412.78436 34.503124Q412.78436 35.378124 412.26874 36.159374Q411.7531 36.940624 410.78436 37.3625Q409.8156 37.784374 408.59686 37.784374Q406.58124 37.784374 405.51874 36.940624Q404.45624 36.096874 404.15936 34.45625ZM424.22186 41.753124Q422.76874 39.925 421.76874 37.471874Q420.76874 35.003124 420.76874 32.3625Q420.76874 30.034374 421.51874 27.909374Q422.39374 25.440624 424.22186 22.9875L425.4875 22.9875Q424.3 25.01875 423.925 25.89375Q423.33124 27.2375 422.9875 28.70625Q422.5656 30.534374 422.5656 32.378124Q422.5656 37.065624 425.4875 41.753124L424.22186 41.753124ZM427.8625 37.55L427.8625 27.175L429.4406 27.175L429.4406 28.628124Q429.925 27.878124 430.7375 27.409374Q431.55 26.940624 432.58124 26.940624Q433.7375 26.940624 434.47186 27.425Q435.20624 27.89375 435.51874 28.753124Q436.7531 26.940624 438.72186 26.940624Q440.26874 26.940624 441.09686 27.8Q441.925 28.659374 441.925 30.425L441.925 37.55L440.175 37.55L440.175 31.01875Q440.175 29.95625 440.0031 29.503124Q439.83124 29.034374 439.3781 28.753124Q438.9406 28.471874 438.33124 28.471874Q437.2375 28.471874 436.5031 29.20625Q435.78436 29.925 435.78436 31.51875L435.78436 37.55L434.03436 37.55L434.03436 30.815624Q434.03436 29.64375 433.59686 29.065624Q433.175 28.471874 432.1906 28.471874Q431.45624 28.471874 430.8156 28.8625Q430.1906 29.253124 429.90936 30.003124Q429.6281 30.753124 429.6281 32.175L429.6281 37.55L427.8625 37.55ZM446.01874 41.753124L444.76874 41.753124Q447.675 37.065624 447.675 32.378124Q447.675 30.534374 447.26874 28.7375Q446.925 27.26875 446.33124 25.925Q445.95624 25.034374 444.76874 22.9875L446.01874 22.9875Q447.8625 25.440624 448.7375 27.909374Q449.4875 30.034374 449.4875 32.3625Q449.4875 35.003124 448.47186 37.471874Q447.47186 39.925 446.01874 41.753124Z" fill-rule="nonzero"/></svg>